<svg width="143" height="143" viewBox="0 0 143 143" fill="none" xmlns="http://www.w3.org/2000/svg">
<circle cx="71.5" cy="71.5" r="71.5" fill="#414C51"/>
<path d="M135 71.5C135 79.8389 133.358 88.0962 130.166 95.8004C126.975 103.505 122.298 110.505 116.401 116.401C110.505 122.298 103.505 126.975 95.8004 130.166C88.0962 133.358 79.8389 135 71.5 135C63.1611 135 54.9038 133.358 47.1996 130.166C39.4954 126.975 32.4952 122.298 26.5987 116.401C20.7022 110.505 16.0248 103.505 12.8336 95.8004C9.64247 88.0962 8 79.8389 8 71.5L71.5 71.5H135Z" fill="white"/>
<path d="M135 71.5C135 54.6588 128.31 38.5073 116.401 26.5987C104.493 14.6902 88.3413 8 71.5 8C54.6588 8 38.5073 14.6902 26.5987 26.5987C14.6902 38.5073 8 54.6587 8 71.5L71.5 71.5H135Z" fill="#E74643"/>
<rect x="4" y="64" width="135" height="11" fill="#414C51"/>
<circle cx="72" cy="71" r="25" fill="#414C51"/>
<circle cx="72" cy="71" r="16" fill="white"/>
<circle cx="72" cy="71" r="8" fill="#414C51"/>
</svg>
